HIERARCHY
ROOT root
{
	OFFSET 0.000000 0.000000 0.000000
	CHANNELS 6 Xposition Yposition Zposition Zrotation Yrotation Xrotation
	JOINT lhip
	{
		OFFSET 0.058581 -0.082280 -0.017664
		CHANNELS 3 Zrotation Yrotation Xrotation
		JOINT lknee
		{
			OFFSET 0.043451 -0.386469 0.008037
			CHANNELS 3 Zrotation Yrotation Xrotation
			JOINT lankle
			{
				OFFSET -0.014790 -0.426874 -0.037428
				CHANNELS 3 Zrotation Yrotation Xrotation
				JOINT ltoe
				{
					OFFSET 0.041054 -0.060286 0.122042
					CHANNELS 3 Zrotation Yrotation Xrotation
					End Site
					{
						OFFSET 0.000000 0.000000 0.000000
					}
				}
			}
		}
	}
	JOINT rhip
	{
		OFFSET -0.060310 -0.090513 -0.013543
		CHANNELS 3 Zrotation Yrotation Xrotation
		JOINT rknee
		{
			OFFSET -0.043257 -0.383688 -0.004843
			CHANNELS 3 Zrotation Yrotation Xrotation
			JOINT rankle
			{
				OFFSET 0.019056 -0.420046 -0.034562
				CHANNELS 3 Zrotation Yrotation Xrotation
				JOINT rtoe
				{
					OFFSET -0.034840 -0.062106 0.130323
					CHANNELS 3 Zrotation Yrotation Xrotation
					End Site
					{
						OFFSET 0.000000 0.000000 0.000000
					}
				}
			}
		}
	}
	JOINT lowerback
	{
		OFFSET 0.004439 0.124404 -0.038385
		CHANNELS 3 Zrotation Yrotation Xrotation
		JOINT upperback
		{
			OFFSET 0.004488 0.137956 0.026820
			CHANNELS 3 Zrotation Yrotation Xrotation
			JOINT chest
			{
				OFFSET -0.002265 0.056032 0.002855
				CHANNELS 3 Zrotation Yrotation Xrotation
				JOINT lowerneck
				{
					OFFSET -0.013390 0.211636 -0.033468
					CHANNELS 3 Zrotation Yrotation Xrotation
					JOINT upperneck
					{
						OFFSET 0.010113 0.088937 0.050410
						CHANNELS 3 Zrotation Yrotation Xrotation
						End Site
						{
							OFFSET 0.000000 0.000000 0.000000
						}
					}
				}
				JOINT lclavicle
				{
					OFFSET 0.071702 0.114000 -0.018898
					CHANNELS 3 Zrotation Yrotation Xrotation
					JOINT lshoulder
					{
						OFFSET 0.122921 0.045205 -0.019046
						CHANNELS 3 Zrotation Yrotation Xrotation
						JOINT lelbow
						{
							OFFSET 0.255332 -0.015649 -0.022946
							CHANNELS 3 Zrotation Yrotation Xrotation
							JOINT lwrist
							{
								OFFSET 0.265709 0.012698 -0.007375
								CHANNELS 3 Zrotation Yrotation Xrotation
								End Site
								{
									OFFSET 0.000000 0.000000 0.000000
								}
							}
						}
					}
				}
				JOINT rclavicle
				{
					OFFSET -0.082954 0.112472 -0.023707
					CHANNELS 3 Zrotation Yrotation Xrotation
					JOINT rshoulder
					{
						OFFSET -0.113228 0.046853 -0.008472
						CHANNELS 3 Zrotation Yrotation Xrotation
						JOINT relbow
						{
							OFFSET -0.260127 -0.014369 -0.031269
							CHANNELS 3 Zrotation Yrotation Xrotation
							JOINT rwrist
							{
								OFFSET -0.269108 0.006794 -0.006027
								CHANNELS 3 Zrotation Yrotation Xrotation
								End Site
								{
									OFFSET 0.000000 0.000000 0.000000
								}
							}
						}
					}
				}
			}
		}
	}
}
MOTION
Frames: 10
Frame Time: 0.033333
-0.753333 0.285333 1.005959 90.692400 1.105063 88.073884 2.640543 2.576206 -1.306726 -4.865415 -0.038378 4.311007 -0.549197 9.298066 -4.949863 0.000000 -0.000000 0.000000 -2.426691 -2.742358 -4.483462 4.212954 -3.336053 9.956731 3.951427 -4.588362 -5.294080 0.000000 -0.000000 0.000000 0.295398 0.677010 8.568627 2.300176 -3.819802 6.840708 0.870645 -1.478072 -2.259036 -1.506927 -0.034608 8.128658 2.157072 -2.064614 9.443089 -23.271543 -2.089568 4.296085 -60.323435 -10.954647 11.530321 7.828707 -18.377022 -4.768932 -3.037749 -7.678250 -4.826421 23.858609 6.035448 4.762873 55.744485 9.538664 11.822796 -12.832924 18.073181 -8.231891 3.042723 4.975639 -3.758158 
-0.753448 0.285577 1.005919 90.719292 1.165513 88.077754 2.685623 2.519059 -1.349683 -4.893156 -0.133202 4.371299 -0.591666 9.422481 -5.013859 0.000000 -0.000000 0.000000 -2.364608 -2.739452 -4.462389 4.227973 -3.171613 9.894379 4.010867 -4.792066 -5.276296 0.000000 -0.000000 0.000000 0.373513 0.602416 8.678515 2.160607 -3.772042 6.451728 0.958888 -1.509316 -1.901350 -1.436445 -0.078702 7.780653 2.073421 -2.037785 9.759127 -23.048100 -2.146521 4.333531 -60.520047 -11.052482 11.512266 7.898716 -18.369537 -4.645953 -2.950591 -7.640324 -4.997647 23.702324 6.098624 4.702849 55.932996 9.566161 11.933132 -12.942963 18.052891 -8.256660 3.076866 4.964343 -3.841200 
-0.753583 0.285951 1.005977 90.723197 1.192895 88.103381 2.687333 2.508136 -1.436688 -4.906049 -0.135737 4.494791 -0.586055 9.440777 -5.129516 0.000000 -0.000000 0.000000 -2.350223 -2.725020 -4.498438 4.223209 -3.172307 9.888555 4.022872 -4.813141 -5.257366 0.000000 -0.000000 0.000000 0.361127 0.593781 8.689013 2.171407 -3.782570 6.418930 0.978752 -1.522875 -1.912760 -1.426465 -0.072397 7.742609 2.089564 -2.017367 9.809285 -23.005961 -2.160949 4.334566 -60.526431 -11.084205 11.529225 7.866871 -18.305827 -4.599090 -2.943213 -7.673257 -4.967723 23.685519 6.122667 4.702071 55.931543 9.563109 11.947075 -12.947976 18.043733 -8.264821 3.061973 4.976620 -3.835896 
-0.753593 0.286429 1.006006 90.683793 1.216746 88.118526 2.680329 2.520547 -1.455593 -4.908323 -0.139082 4.500017 -0.557357 9.464253 -5.139359 0.000000 -0.000000 0.000000 -2.343590 -2.724060 -4.517068 4.211205 -3.142896 9.876227 4.044082 -4.811659 -5.235964 0.000000 -0.000000 0.000000 0.348324 0.604604 8.680708 2.182003 -3.771016 6.398664 0.992701 -1.521490 -1.896622 -1.416040 -0.092746 7.777115 2.056371 -1.951434 9.818970 -22.997436 -2.174741 4.290118 -60.476078 -11.093437 11.587656 7.816874 -18.313181 -4.570747 -2.944707 -7.647056 -4.941615 23.671520 6.137638 4.680479 55.925166 9.546203 11.979044 -12.942958 18.025801 -8.286461 3.065941 4.948890 -3.819607 
-0.753531 0.286703 1.006016 90.638199 1.226736 88.124015 2.670858 2.528998 -1.441345 -4.904738 -0.125761 4.480528 -0.540142 9.479434 -5.144880 0.000000 -0.000000 0.000000 -2.341151 -2.711323 -4.524454 4.199831 -3.110441 9.875934 4.048943 -4.812208 -5.230178 0.000000 -0.000000 0.000000 0.339218 0.611095 8.631130 2.189728 -3.751125 6.439241 0.991102 -1.523955 -1.846419 -1.360205 -0.142274 7.771773 1.956799 -1.886489 9.796623 -23.016998 -2.161985 4.213061 -60.427625 -11.095677 11.632842 7.809163 -18.308064 -4.601306 -2.942453 -7.635052 -4.902478 23.673878 6.154794 4.619725 55.917678 9.545354 12.028806 -12.937138 18.001552 -8.337850 3.057572 4.935605 -3.777322 
-0.753434 0.287043 1.005976 90.560889 1.239216 88.121208 2.651019 2.522759 -1.407165 -4.893122 -0.100136 4.454513 -0.513142 9.522898 -5.156823 0.000000 -0.000000 0.000000 -2.342644 -2.676020 -4.523224 4.191400 -3.082802 9.870355 4.045067 -4.794809 -5.235028 0.000000 -0.000000 0.000000 0.340008 0.617032 8.604721 2.178346 -3.726880 6.449015 0.986718 -1.509859 -1.831123 -1.354816 -0.156866 7.784024 1.932239 -1.864271 9.788834 -22.999469 -2.189588 4.220289 -60.422214 -11.103574 11.618419 7.839332 -18.267615 -4.663551 -2.938895 -7.658388 -4.914784 23.669764 6.211396 4.646100 55.944133 9.552706 12.051659 -12.948694 17.964486 -8.365665 3.046322 4.952017 -3.799596 
-0.753397 0.287384 1.005945 90.495191 1.247232 88.108659 2.643683 2.542845 -1.379039 -4.903835 -0.085672 4.441426 -0.490784 9.546027 -5.161870 0.000000 -0.000000 0.000000 -2.352294 -2.668936 -4.519128 4.186427 -3.062139 9.877561 4.059765 -4.760995 -5.233305 0.000000 -0.000000 0.000000 0.336748 0.628423 8.618471 2.168029 -3.722023 6.438190 0.987806 -1.484302 -1.887791 -1.409703 -0.125452 7.823300 2.014672 -1.911194 9.795337 -22.981005 -2.231817 4.305260 -60.419660 -11.100371 11.558768 7.845642 -18.223070 -4.689961 -2.940723 -7.678455 -4.943253 23.669509 6.237672 4.732926 55.975075 9.549413 12.019444 -12.952680 17.963553 -8.332617 3.055825 4.974677 -3.851292 
-0.753383 0.287699 1.005933 90.434865 1.257821 88.104180 2.637603 2.570215 -1.373645 -4.908863 -0.084123 4.444613 -0.463940 9.571519 -5.170133 0.000000 -0.000000 0.000000 -2.355401 -2.655615 -4.534059 4.179912 -3.035241 9.903010 4.069931 -4.742798 -5.243232 0.000000 -0.000000 0.000000 0.335425 0.630361 8.633232 2.167843 -3.715117 6.417584 0.990681 -1.468803 -1.911843 -1.443146 -0.103592 7.834317 2.034925 -1.921444 9.793974 -22.980025 -2.236222 4.323317 -60.411039 -11.070897 11.556613 7.829652 -18.178022 -4.666955 -2.968851 -7.672634 -4.921770 23.678131 6.241979 4.746819 55.998762 9.536453 12.018527 -12.950894 17.976196 -8.315026 3.070059 4.999844 -3.862939 
-0.753344 0.287964 1.005882 90.372202 1.262643 88.114059 2.621186 2.588665 -1.377734 -4.898311 -0.072577 4.440959 -0.441677 9.597710 -5.171154 0.000000 -0.000000 0.000000 -2.357488 -2.625755 -4.571275 4.167590 -3.007875 9.942851 4.073521 -4.738613 -5.254487 0.000000 -0.000000 0.000000 0.321162 0.629790 8.616961 2.174665 -3.705686 6.421977 0.996918 -1.463134 -1.922580 -1.450954 -0.083537 7.845407 2.019507 -1.901181 9.780499 -22.972382 -2.226391 4.323390 -60.422533 -11.026870 11.579610 7.831630 -18.156422 -4.653643 -3.012207 -7.644541 -4.878642 23.697509 6.251706 4.740468 56.016700 9.546539 12.030946 -12.946401 17.966837 -8.318263 3.076128 4.995395 -3.826629 
-0.753322 0.288202 1.005863 90.312109 1.267290 88.134012 2.608432 2.596930 -1.384863 -4.892635 -0.042108 4.426805 -0.432847 9.616370 -5.168167 0.000000 -0.000000 0.000000 -2.357406 -2.605196 -4.614471 4.154552 -2.981486 9.971466 4.083974 -4.734207 -5.250981 0.000000 -0.000000 0.000000 0.298493 0.627741 8.579180 2.191693 -3.700356 6.451311 1.008851 -1.466675 -1.915302 -1.430822 -0.058374 7.833606 1.954334 -1.836908 9.768802 -22.979663 -2.198409 4.279363 -60.434719 -10.989946 11.617638 7.830502 -18.112408 -4.682430 -3.017337 -7.627984 -4.847979 23.742455 6.249236 4.698905 56.018550 9.559932 12.065656 -12.942005 17.963759 -8.358169 3.068520 4.981560 -3.758730 
